<?xml version="1.0" standalone="no"?>
<!DOCTYPE svg PUBLIC "-//W3C//DTD SVG 20010904//EN"
 "http://www.w3.org/TR/2001/REC-SVG-20010904/DTD/svg10.dtd">
<svg version="1.0" xmlns="http://www.w3.org/2000/svg"
 width="331.000000pt" height="173.000000pt" viewBox="0 0 331.000000 173.000000"
 preserveAspectRatio="xMidYMid meet">

<g transform="translate(0.000000,173.000000) scale(0.100000,-0.100000)"
fill="#000000" stroke="none">
<path d="M1079 1659 c89 -11 149 -44 189 -103 17 -27 32 -60 32 -75 0 -15 14
-49 31 -77 18 -27 38 -65 45 -84 7 -19 13 -28 13 -19 1 9 -17 50 -39 92 -22
41 -40 83 -40 92 0 30 -39 93 -77 124 -44 36 -119 62 -177 60 -33 -1 -29 -3
23 -10z"/>
<path d="M1660 1563 l0 -103 71 0 c39 0 79 5 90 10 25 14 26 75 2 89 -17 9
-17 11 2 25 19 14 19 17 5 43 -15 26 -21 28 -93 33 l-77 5 0 -102z m104 34
c-3 -9 -10 -17 -15 -17 -14 0 -22 27 -15 47 6 15 8 15 22 2 8 -9 12 -23 8 -32z
m4 -81 c-2 -11 -11 -22 -20 -24 -14 -3 -18 3 -18 26 0 16 3 32 7 35 11 12 34
-15 31 -37z"/>
<path d="M2040 1664 c0 -1 14 -34 30 -72 17 -39 30 -85 30 -102 0 -29 2 -31
31 -28 29 3 31 6 33 43 2 22 15 63 29 92 15 29 27 55 27 58 0 3 -15 5 -34 5
-31 0 -34 -3 -40 -35 -9 -44 -22 -45 -30 -1 -6 30 -11 34 -41 38 -19 2 -35 3
-35 2z"/>
<path d="M2360 1563 l0 -103 30 0 c28 0 30 2 30 40 0 51 10 51 32 0 15 -35 20
-40 50 -40 l33 0 0 100 0 100 -34 0 c-33 0 -33 -1 -29 -40 5 -51 -6 -51 -29 2
-16 35 -23 41 -51 42 l-32 1 0 -102z"/>
<path d="M988 1653 c7 -3 16 -2 19 1 4 3 -2 6 -13 5 -11 0 -14 -3 -6 -6z"/>
<path d="M1518 890 c1 -492 6 -770 12 -770 6 0 11 278 12 770 3 679 1 770 -12
770 -13 0 -15 -91 -12 -770z"/>
<path d="M1895 1648 c-5 -18 -35 -168 -35 -179 0 -5 18 -9 40 -9 33 0 40 3 40
20 0 12 7 20 16 20 9 0 18 -9 21 -20 4 -16 14 -20 43 -20 l37 0 -14 63 c-8 34
-19 79 -24 100 l-10 37 -55 0 c-35 0 -56 -5 -59 -12z m75 -78 c0 -29 -4 -40
-15 -40 -16 0 -19 20 -9 58 10 36 24 25 24 -18z"/>
<path d="M2240 1560 l0 -100 40 0 40 0 0 100 0 100 -40 0 -40 0 0 -100z"/>
<path d="M2570 1560 l0 -100 79 0 c102 0 111 8 111 100 0 92 -9 100 -111 100
l-79 0 0 -100z m105 5 c0 -46 -4 -70 -12 -72 -10 -4 -13 15 -13 72 0 57 3 76
13 73 8 -3 12 -27 12 -73z"/>
<path d="M2795 1560 l0 -100 38 0 37 0 0 100 0 100 -37 0 -38 0 0 -100z"/>
<path d="M2910 1559 l0 -100 38 3 c36 3 37 4 34 40 -4 47 4 63 24 47 8 -6 14
-29 14 -50 0 -38 1 -39 35 -39 34 0 35 1 35 37 0 20 -8 45 -17 56 -17 18 -17
19 0 28 21 12 22 43 1 63 -11 12 -36 16 -90 16 l-74 0 0 -101z m104 38 c-3 -9
-10 -17 -15 -17 -14 0 -22 27 -15 47 6 15 8 15 22 2 8 -9 12 -23 8 -32z"/>
<path d="M920 1629 c-19 -12 -51 -28 -70 -35 l-35 -14 35 6 c19 3 42 12 50 19
8 7 29 20 45 28 17 9 26 16 20 17 -5 0 -26 -10 -45 -21z"/>
<path d="M910 1578 c-19 -5 -44 -10 -55 -12 -37 -6 -70 -19 -97 -38 -16 -11
-28 -15 -28 -9 0 5 19 21 43 35 23 14 37 26 31 26 -26 0 -80 -48 -91 -82 -17
-53 0 -104 53 -157 43 -43 43 -44 34 -87 -18 -79 21 -181 76 -199 16 -5 31
-10 32 -11 2 -2 -12 -24 -32 -50 -40 -52 -42 -62 -23 -88 10 -14 11 -30 3 -69
-12 -59 -24 -72 -47 -51 -8 7 -21 14 -29 14 -7 0 -19 8 -26 18 -13 16 -15 16
-28 0 -17 -22 -32 -23 -40 -2 -4 9 -9 14 -13 10 -3 -3 -15 2 -25 11 -26 23
-45 4 -28 -27 11 -21 11 -22 -11 -17 -13 4 -30 7 -36 7 -7 0 -13 9 -13 20 0
12 -7 20 -16 20 -9 0 -18 -9 -21 -20 -6 -24 -31 -26 -48 -3 -13 18 -35 10 -35
-13 0 -8 -4 -14 -10 -14 -5 0 -10 4 -10 9 0 14 -31 22 -44 12 -19 -15 -52 -17
-69 -3 -20 17 -40 6 -32 -18 4 -14 1 -16 -18 -13 -28 5 -42 -18 -28 -45 10
-20 3 -43 -17 -58 -13 -9 -9 -19 25 -65 79 -107 182 -181 272 -195 23 -4 41
-11 41 -17 0 -7 4 -7 12 1 7 7 17 12 22 12 6 0 3 -7 -8 -15 -13 -10 -25 -11
-43 -4 -28 10 -64 4 -108 -20 -16 -9 -43 -18 -60 -21 -22 -4 -34 -14 -45 -37
-8 -18 -21 -33 -27 -33 -26 0 -12 -20 19 -28 29 -7 34 -13 40 -52 4 -24 17
-53 28 -65 28 -30 99 -49 146 -40 76 14 128 106 107 188 -7 23 -10 43 -9 45 2
1 33 -18 70 -43 80 -53 126 -60 152 -21 8 14 14 35 13 48 -2 13 7 39 19 58 12
19 22 38 22 41 0 4 7 23 15 44 l16 37 19 -25 c18 -22 19 -32 10 -108 -6 -46
-10 -87 -10 -91 0 -18 -42 -48 -68 -48 -51 -1 -81 -47 -50 -78 14 -14 118 -15
193 -2 43 7 53 5 71 -11 25 -24 90 -25 163 -3 51 15 52 16 46 46 -7 31 -9 45
-20 213 -5 82 -4 91 14 105 20 15 20 15 -4 138 -13 67 -27 126 -30 132 -3 5 7
22 24 37 26 25 30 36 34 101 4 71 3 75 -24 103 -31 32 -37 49 -16 49 13 0 77
54 77 66 0 3 -9 4 -20 1 -11 -3 -20 0 -20 6 0 21 25 82 37 90 7 4 20 22 30 40
15 30 15 31 0 18 -15 -12 -17 -11 -17 8 0 34 -35 93 -81 136 l-43 40 46 -55
c52 -63 63 -82 71 -127 4 -20 1 -35 -7 -42 -10 -9 -15 0 -25 42 -15 66 -61
147 -113 197 -79 77 -223 128 -308 108z m-79 -60 c-38 -55 -51 -137 -27 -173
9 -14 13 -25 8 -25 -11 0 -67 60 -81 87 -13 25 -15 115 -2 95 6 -10 11 -9 22
4 13 16 84 53 102 54 5 0 -5 -19 -22 -42z m319 -157 c27 -23 34 -36 34 -64 0
-20 4 -33 8 -31 4 3 8 12 8 19 0 16 34 38 44 28 19 -19 -20 -83 -51 -83 -8 0
-27 -15 -44 -34 -43 -50 -104 -71 -159 -56 -57 15 -86 35 -98 68 -11 32 -35
153 -30 157 10 11 142 34 147 26 3 -5 24 -6 46 -2 29 5 35 9 23 13 -10 4 -18
12 -18 18 0 12 28 -7 90 -59z m155 -167 c-3 -18 -10 -36 -15 -39 -5 -3 -5 9 1
27 5 18 10 49 10 68 2 33 2 33 6 6 3 -16 2 -44 -2 -62z m-192 -74 c5 -18 0
-20 -39 -20 -24 0 -44 5 -44 10 0 6 14 10 31 10 17 0 28 4 24 10 -3 6 0 10 8
10 8 0 17 -9 20 -20z m-126 -65 l-7 -45 65 0 c64 0 65 1 65 27 0 29 25 63 47
63 8 0 6 -7 -8 -21 -18 -18 -20 -29 -15 -69 5 -40 23 -103 51 -179 4 -11 11
-9 30 9 19 18 22 26 13 37 -6 7 -9 15 -7 16 60 40 89 32 89 -23 0 -33 -6 -47
-32 -70 -17 -16 -44 -32 -60 -35 -16 -4 -37 -15 -46 -25 -9 -10 -36 -28 -59
-40 -24 -12 -59 -43 -79 -71 -38 -52 -51 -59 -61 -32 -7 19 61 84 109 104 16
6 28 18 28 25 0 21 -6 18 -78 -40 -64 -51 -69 -59 -122 -176 -54 -121 -71
-143 -93 -121 -8 8 -6 15 9 26 24 16 59 91 69 147 4 21 13 42 21 49 18 15 20
119 2 119 -7 0 -23 3 -35 6 -19 5 -23 2 -23 -15 0 -26 -24 -28 -36 -2 -8 18
-12 18 -52 5 -34 -12 -47 -13 -58 -3 -11 9 -17 9 -28 0 -12 -10 -20 -9 -42 5
-23 15 -28 16 -38 3 -17 -21 -34 -21 -46 1 -9 16 -8 18 5 14 10 -4 15 0 15 11
0 14 3 15 15 5 11 -9 22 -9 44 -2 16 6 39 8 50 5 16 -4 21 -1 21 13 1 18 1 18
15 0 12 -16 18 -17 27 -8 15 15 52 16 43 2 -4 -6 -11 -8 -16 -5 -5 4 -9 1 -9
-5 0 -19 30 -23 49 -6 10 9 20 13 23 10 7 -6 13 13 23 71 9 54 12 57 40 39 22
-14 23 -14 29 13 3 15 8 53 11 83 9 78 24 130 37 130 7 0 9 -15 5 -45z m-593
-283 c-16 -31 0 -45 20 -17 7 10 28 19 47 20 19 1 48 6 64 10 21 4 26 4 16 -3
-7 -5 -11 -14 -7 -20 3 -5 0 -9 -7 -8 -6 0 -14 -3 -16 -9 -2 -5 -12 -16 -22
-23 -21 -14 -59 -1 -59 21 0 8 -3 8 -9 -2 -5 -7 -20 -13 -35 -13 -14 0 -23 -4
-20 -9 5 -8 0 -10 -38 -13 -7 -1 -12 6 -10 14 3 12 0 12 -15 -1 -10 -9 -23
-14 -30 -12 -6 2 -13 -6 -15 -19 -3 -22 1 -23 97 -34 74 -8 88 -12 55 -14
l-45 -3 35 -8 c22 -5 2 -6 -55 -3 -49 3 -98 8 -107 10 -21 6 -24 34 -4 34 16
0 29 53 15 58 -6 3 -5 10 2 18 10 12 8 13 -7 8 -15 -5 -16 -4 -4 5 9 6 18 7
24 1 16 -16 44 -12 58 8 7 9 25 17 41 16 17 -1 27 4 27 13 0 8 4 12 9 8 6 -3
4 -17 -5 -33z m523 -114 c-3 -8 -6 -5 -6 6 -1 11 2 17 5 13 3 -3 4 -12 1 -19z
m270 0 c-2 -7 -17 -57 -33 -110 l-28 -98 -58 0 -58 0 0 53 c0 65 31 123 80
148 40 22 105 26 97 7z m-37 -251 c0 -13 4 -27 9 -32 10 -10 14 -47 12 -102
-1 -18 -12 -44 -27 -62 -14 -17 -21 -31 -16 -31 20 0 49 55 57 105 5 28 10 43
12 33 2 -9 15 -19 29 -22 13 -4 24 -12 24 -20 0 -25 -58 -93 -85 -100 -53 -13
-62 -3 -68 85 -4 44 -4 100 0 125 5 38 9 44 29 44 18 0 24 -5 24 -23z m-450
-27 c41 -11 85 -20 97 -20 29 0 36 -14 29 -56 -5 -21 -13 -34 -23 -34 -23 0
-123 56 -168 95 -47 40 -38 42 65 15z m73 13 c-7 -2 -21 -2 -30 0 -10 3 -4 5
12 5 17 0 24 -2 18 -5z m280 -10 c-7 -2 -21 -2 -30 0 -10 3 -4 5 12 5 17 0 24
-2 18 -5z m160 -10 c-12 -2 -24 -12 -26 -21 -3 -12 -5 -10 -6 6 -1 18 4 22 27
21 22 -1 23 -2 5 -6z m-166 -25 c-3 -8 -6 -5 -6 6 -1 11 2 17 5 13 3 -3 4 -12
1 -19z m-484 -27 c-18 -26 -38 -41 -55 -43 -31 -5 -38 7 -10 16 10 4 31 20 47
36 41 43 51 37 18 -9z m-194 16 c-2 -1 -13 -9 -24 -17 -19 -14 -19 -14 -6 3 7
9 18 17 24 17 6 0 8 -1 6 -3z m670 -44 c11 -9 -77 -84 -109 -93 -46 -13 -93
-13 -85 0 3 6 19 10 34 10 37 0 81 35 81 64 0 12 3 25 6 29 6 6 64 -2 73 -10z
m-464 -45 c-8 -26 -44 -68 -58 -68 -5 0 2 9 16 20 13 11 28 31 31 45 4 14 9
25 12 25 3 0 2 -10 -1 -22z m-92 -43 c23 -32 17 -32 -13 0 -13 14 -19 25 -14
25 5 0 17 -12 27 -25z m417 -56 c0 -10 -31 -12 -54 -3 -28 11 -17 20 19 16 19
-2 35 -8 35 -13z m266 -27 c-23 -5 -66 6 -66 17 0 4 19 3 42 -3 23 -6 34 -12
24 -14z"/>
<path d="M1043 1347 c3 -9 1 -17 -5 -19 -13 -5 -2 -28 13 -28 13 0 11 47 -3
56 -7 5 -9 2 -5 -9z"/>
<path d="M897 1328 c-7 -25 0 -41 14 -33 12 8 12 42 0 49 -5 3 -11 -4 -14 -16z"/>
<path d="M1000 1210 c-9 -6 -10 -10 -3 -10 6 0 15 5 18 10 8 12 4 12 -15 0z"/>
<path d="M355 760 c-3 -6 1 -7 9 -4 18 7 21 14 7 14 -6 0 -13 -4 -16 -10z"/>
<path d="M1660 1392 c0 -4 23 -86 50 -182 47 -163 50 -182 50 -287 l0 -113 70
0 70 0 0 108 c0 101 4 121 50 280 28 95 53 179 57 188 5 13 -5 15 -63 12 l-69
-3 -19 -107 c-11 -60 -22 -108 -26 -108 -3 0 -12 39 -19 88 -20 142 -14 132
-87 132 -35 0 -64 -3 -64 -8z"/>
<path d="M2734 1386 c-3 -8 -4 -25 -2 -38 3 -21 8 -23 76 -26 l72 -3 0 41 0
40 -70 0 c-52 0 -72 -4 -76 -14z"/>
<path d="M2940 1105 l0 -295 70 0 70 0 0 295 0 295 -70 0 -70 0 0 -295z"/>
<path d="M2095 1285 c-84 -30 -100 -77 -93 -272 3 -94 7 -124 22 -146 28 -41
72 -60 141 -61 106 -1 156 43 163 144 l4 60 -65 0 -66 0 -3 -56 c-2 -42 -8
-60 -21 -68 -26 -16 -37 8 -37 87 l0 67 96 0 97 0 -5 83 c-5 90 -22 128 -68
152 -43 22 -120 27 -165 10z m93 -118 c3 -45 2 -47 -22 -47 -24 0 -26 4 -26
43 0 48 6 59 30 55 10 -2 16 -17 18 -51z"/>
<path d="M2461 1290 c-44 -10 -70 -38 -81 -86 -19 -81 10 -144 85 -181 67 -34
95 -62 95 -97 0 -22 -6 -36 -16 -40 -26 -10 -44 13 -44 55 l0 39 -61 0 -61 0
4 -55 c5 -62 24 -89 74 -107 25 -9 34 -18 34 -35 0 -21 5 -23 45 -23 41 0 45
2 45 24 0 19 7 26 29 31 45 10 71 45 78 106 8 83 -11 119 -90 163 -80 45 -99
66 -95 103 2 20 8 28 23 28 16 0 21 -8 23 -37 l3 -38 66 0 66 0 -6 46 c-10 90
-97 132 -216 104z"/>
<path d="M2734 1277 c-2 -7 -3 -114 -2 -237 l3 -225 73 -3 72 -3 0 241 0 240
-70 0 c-48 0 -72 -4 -76 -13z"/>
<path d="M1690 410 l0 -290 130 0 130 0 0 55 0 55 -55 0 -55 0 0 70 0 70 45 0
45 0 0 54 c0 49 -2 54 -20 49 -11 -3 -31 -2 -45 1 -23 6 -25 11 -25 61 l0 55
50 0 50 0 0 55 0 55 -125 0 -125 0 0 -290z"/>
<path d="M2043 596 c-45 -20 -56 -68 -51 -234 3 -132 3 -134 31 -158 33 -28
100 -33 133 -9 12 8 24 12 26 9 9 -8 -3 -78 -14 -85 -16 -10 -38 0 -38 17 0
11 -17 14 -71 14 l-71 0 7 -27 c14 -56 62 -83 147 -83 76 0 123 16 152 51 l26
31 0 239 0 239 -64 0 c-56 0 -64 -2 -69 -21 l-6 -21 -28 21 c-39 28 -73 33
-110 17z m135 -201 c3 -132 -4 -159 -33 -135 -19 16 -22 239 -3 258 26 26 33
3 36 -123z"/>
<path d="M2495 603 c-48 -12 -87 -38 -103 -67 -22 -41 -25 -293 -3 -343 37
-89 203 -109 276 -33 25 26 30 40 33 95 l4 65 -65 0 -66 0 -3 -62 c-2 -52 -6
-63 -22 -66 -27 -6 -36 15 -36 91 l0 67 95 0 95 0 0 73 c0 87 -20 133 -70 158
-38 20 -104 30 -135 22z m63 -125 c2 -35 -1 -47 -13 -52 -26 -9 -35 2 -35 43
0 73 43 81 48 9z"/>
</g>
</svg>
